<svg width="32" height="32" viewBox="0 0 32 32" fill="none" xmlns="http://www.w3.org/2000/svg">
<path d="M5.99992 21.9997C3.99992 23.6797 3.33325 28.6664 3.33325 28.6664C3.33325 28.6664 8.31992 27.9997 9.99992 25.9997C10.9466 24.8797 10.9333 23.1597 9.87992 22.1197C9.36166 21.625 8.67898 21.3392 7.96289 21.3171C7.2468 21.2949 6.54775 21.538 5.99992 21.9997Z" stroke="#FFB020" stroke-width="2.66667" stroke-linecap="round" stroke-linejoin="round"/>
<path d="M16 19.9997L12 15.9997C12.7095 14.1589 13.6029 12.3944 14.6667 10.733C16.2202 8.249 18.3835 6.20374 20.9507 4.7918C23.5178 3.37986 26.4036 2.64817 29.3333 2.66635C29.3333 6.29301 28.2933 12.6663 21.3333 17.333C19.6492 18.398 17.8625 19.2913 16 19.9997Z" stroke="#FFB020" stroke-width="2.66667" stroke-linecap="round" stroke-linejoin="round"/>
<path d="M11.9999 15.9999H5.33325C5.33325 15.9999 6.06659 11.9599 7.99992 10.6666C10.1599 9.22661 14.6666 10.6666 14.6666 10.6666" stroke="#FFB020" stroke-width="2.66667" stroke-linecap="round" stroke-linejoin="round"/>
<path d="M16 19.9999V26.6666C16 26.6666 20.04 25.9333 21.3333 23.9999C22.7733 21.8399 21.3333 17.3333 21.3333 17.3333" stroke="#FFB020" stroke-width="2.66667" stroke-linecap="round" stroke-linejoin="round"/>
</svg>
