<svg width="32" height="32" viewBox="0 0 32 32" fill="none" xmlns="http://www.w3.org/2000/svg">
<path d="M5.33336 18.6668C5.08105 18.6677 4.83367 18.5969 4.61997 18.4628C4.40626 18.3286 4.23501 18.1366 4.1261 17.909C4.01718 17.6814 3.97509 17.4276 4.0047 17.177C4.0343 16.9264 4.1344 16.6894 4.29336 16.4935L17.4934 2.89347C17.5924 2.77918 17.7273 2.70194 17.876 2.67445C18.0247 2.64695 18.1783 2.67082 18.3117 2.74214C18.445 2.81346 18.5501 2.928 18.6098 3.06695C18.6695 3.20589 18.6801 3.361 18.64 3.5068L16.08 11.5335C16.0045 11.7355 15.9792 11.9528 16.0062 12.1668C16.0331 12.3808 16.1116 12.585 16.2348 12.762C16.3581 12.939 16.5224 13.0835 16.7137 13.183C16.9051 13.2825 17.1177 13.3342 17.3334 13.3335H26.6667C26.919 13.3326 27.1664 13.4034 27.3801 13.5375C27.5938 13.6716 27.7651 13.8637 27.874 14.0913C27.9829 14.3189 28.025 14.5727 27.9954 14.8233C27.9658 15.0738 27.8657 15.3109 27.7067 15.5068L14.5067 29.1068C14.4077 29.2211 14.2728 29.2983 14.1241 29.3258C13.9754 29.3533 13.8217 29.3295 13.6884 29.2581C13.555 29.1868 13.4499 29.0723 13.3903 28.9333C13.3306 28.7944 13.3199 28.6393 13.36 28.4935L15.92 20.4668C15.9955 20.2648 16.0209 20.0474 15.9939 19.8335C15.9669 19.6195 15.8885 19.4152 15.7652 19.2382C15.642 19.0612 15.4777 18.9168 15.2863 18.8173C15.095 18.7177 14.8824 18.6661 14.6667 18.6668H5.33336Z" stroke="#00B8DB" stroke-width="2.66667" stroke-linecap="round" stroke-linejoin="round"/>
</svg>
