<svg width="40" height="40" viewBox="0 0 40 40" fill="none" xmlns="http://www.w3.org/2000/svg">
<path d="M25.7951 21.4832L28.3201 35.6932C28.3484 35.8605 28.3249 36.0325 28.2528 36.1861C28.1807 36.3397 28.0634 36.4676 27.9166 36.5528C27.7698 36.638 27.6006 36.6763 27.4314 36.6627C27.2623 36.649 27.1013 36.5841 26.9701 36.4765L21.0034 31.9982C20.7154 31.783 20.3655 31.6667 20.0059 31.6667C19.6464 31.6667 19.2964 31.783 19.0084 31.9982L13.0317 36.4748C12.9006 36.5822 12.7398 36.6471 12.5709 36.6607C12.402 36.6744 12.2329 36.6362 12.0862 36.5513C11.9395 36.4663 11.8222 36.3387 11.7499 36.1854C11.6777 36.0321 11.6539 35.8603 11.6817 35.6932L14.2051 21.4832" stroke="#00BC7D" stroke-width="3.33333" stroke-linecap="round" stroke-linejoin="round"/>
<path d="M20 23.3333C25.5228 23.3333 30 18.8561 30 13.3333C30 7.8104 25.5228 3.33325 20 3.33325C14.4772 3.33325 10 7.8104 10 13.3333C10 18.8561 14.4772 23.3333 20 23.3333Z" stroke="#00BC7D" stroke-width="3.33333" stroke-linecap="round" stroke-linejoin="round"/>
</svg>
