<svg width="17" height="17" viewBox="0 0 17 17" fill="none" xmlns="http://www.w3.org/2000/svg">
<path d="M6.5 0.5C5.71136 0.500291 4.93056 0.635634 4.20247 0.898252C3.47437 1.16087 2.81332 1.54559 2.25731 2.0303C1.13116 3.01203 0.499336 4.34027 0.500001 5.7246C0.500001 7.3842 0.995692 8.5915 2.90127 10.6144C3.78651 11.4866 4.56215 12.4379 5.21508 13.4524C5.906 14.6721 5.82454 15.5 6.5 15.5C7.17546 15.5 7.094 14.6721 7.78492 13.4524C8.43784 12.4379 9.21348 11.4866 10.0987 10.6144C12.0043 8.5915 12.5 7.3841 12.5 5.7246C12.5006 4.34028 11.8688 3.01204 10.7427 2.0303C10.1867 1.54559 9.52563 1.16087 8.79753 0.898252C8.06944 0.635634 7.28864 0.500291 6.5 0.5Z" stroke="#51A2FF"/>
<path d="M6.5 7.5C7.60457 7.5 8.5 6.60457 8.5 5.5C8.5 4.39543 7.60457 3.5 6.5 3.5C5.39543 3.5 4.5 4.39543 4.5 5.5C4.5 6.60457 5.39543 7.5 6.5 7.5Z" stroke="#51A2FF"/>
</svg>
